# xmcd
#
# Track frame offsets: 
#        150
#        16006
#        32075
#        48432
#        64334
#        79485
#        95232
#        110222
#        126662
#        139892
#        155447
#        170136
#        186427
#        200756
#        216074
#        242818
#
# Disc length: 3536 seconds
#
# Revision: 0
# Processed by: cddbd v1.5.2PL0 Copyright (c) Steve Scherf et al.
# Submitted via: ExactAudioCopy v0.99pb4
#
DISCID=fe0dce10
DTITLE=Vivian Lindt - " V "
DYEAR=2009
DGENRE=Deutsche Titel
TTITLE0=Du tust mir gut
TTITLE1=Wie ein Bumerang
TTITLE2=Mit der Achterbahn hinein ins Glück
TTITLE3=Sowieso
TTITLE4=Ich könnt mich glatt verlieben
TTITLE5=Vielleicht
TTITLE6=Doch dann plötzlich
TTITLE7=Am liebsten mit Dir
TTITLE8=Alt genug für alles
TTITLE9=Dein Kuss schmeckt nach Sommer
TTITLE10=Ruf mich an
TTITLE11=Träumst Du noch oder liebst Du schon
TTITLE12=Du tust mir gut (Discomix) (Bonus)
TTITLE13=Mit der Achterbahn hinein ins Glück (Discomix) (Bonus)
TTITLE14=Du tust mir gut (Extended Mix) (Bonus)
TTITLE15=Mit der Achterbahn hinein ins Glück (Extended Mix) (Bonus)
EXTD=
EXTT0=
EXTT1=
EXTT2=
EXTT3=
EXTT4=
EXTT5=
EXTT6=
EXTT7=
EXTT8=
EXTT9=
EXTT10=
EXTT11=
EXTT12=
EXTT13=
EXTT14=
EXTT15=
PLAYORDER=
